# xmcd
#
# Track frame offsets:
#	150
#	14305
#	26209
#	38709
#	49455
#	63670
#	76299
#	88909
#	98841
#	110280
#	130857
#	154233
#	172506
#	185032
#
# Disc length: 2745 seconds
#
# Revision: 0
# Processed by: cddbd v1.5.2PL0 Copyright (c) Steve Scherf et al.
# Submitted via: dBpowerAMP V4.0
#
DISCID=b50ab70e
DTITLE=Jimmy and Mama Yancey - Chicago Piano Vol.1
DYEAR=2006
DGENRE=Blues
TTITLE0=Mournful Blues
TTITLE1=Yancey Special
TTITLE2=How Long Blues
TTITLE3=Yancey's Bugle Call
TTITLE4=35th And Dearborn
TTITLE5=Shave 'Em Dry
TTITLE6=Salute To Pinetop
TTITLE7=Blues For Albert
TTITLE8=Yancey Special (2nd version)
TTITLE9=Make Me A Pallet On The Floor
TTITLE10=Four O'Clock Blues
TTITLE11=Monkey Woman Blues
TTITLE12=Santa Fe
TTITLE13=How Long Blues
EXTD=
EXTT0=
EXTT1=
EXTT2=
EXTT3=
EXTT4=
EXTT5=
EXTT6=
EXTT7=
EXTT8=
EXTT9=
EXTT10=
EXTT11=
EXTT12=
EXTT13=
PLAYORDER=
